<svg width="28" height="26" viewBox="0 0 28 26" fill="none" xmlns="http://www.w3.org/2000/svg">
<path d="M23.3333 25L27.3333 21M27.3333 21L23.3333 17M27.3333 21H19.3333M14 17.6667H8.00001C6.13926 17.6667 5.20888 17.6667 4.45182 17.8963C2.74728 18.4134 1.41339 19.7473 0.896325 21.4518C0.666672 22.2089 0.666672 23.1393 0.666672 25M17.3333 7C17.3333 10.3137 14.647 13 11.3333 13C8.01963 13 5.33334 10.3137 5.33334 7C5.33334 3.68629 8.01963 1 11.3333 1C14.647 1 17.3333 3.68629 17.3333 7Z" stroke="#1F222C" stroke-linecap="round" stroke-linejoin="round"/>
</svg>
