<svg width="26" height="26" viewBox="0 0 26 26" fill="none" xmlns="http://www.w3.org/2000/svg">
<path d="M18.3328 7.66667C18.3328 9.08115 17.7709 10.4377 16.7707 11.4379C15.7705 12.4381 14.4139 13 12.9995 13C11.585 13 10.2284 12.4381 9.22822 11.4379C8.22802 10.4377 7.66612 9.08115 7.66612 7.66667M1.84374 6.86851L0.910411 18.0685C0.709909 20.4745 0.609658 21.6776 1.01637 22.6056C1.3737 23.4209 1.99283 24.0938 2.7757 24.5176C3.66675 25 4.87393 25 7.2883 25H18.7106C21.125 25 22.3322 25 23.2232 24.5176C24.0061 24.0938 24.6252 23.4209 24.9825 22.6056C25.3892 21.6776 25.289 20.4745 25.0885 18.0685L24.1552 6.86851C23.9826 4.79833 23.8964 3.76325 23.438 2.97981C23.0343 2.28992 22.4331 1.7368 21.7121 1.39179C20.8933 1 19.8546 1 17.7773 1L8.22164 1C6.14429 1 5.10561 1 4.28681 1.39179C3.56578 1.7368 2.96465 2.28992 2.56095 2.97981C2.10252 3.76324 2.01626 4.79833 1.84374 6.86851Z" stroke="#282828" stroke-linecap="round" stroke-linejoin="round"/>
</svg>
