<svg width="14" height="14" viewBox="0 0 14 14" fill="none" xmlns="http://www.w3.org/2000/svg">
<path d="M4.41735 8.33333C4.71337 9.48348 5.75744 10.3333 7 10.3333C8.24256 10.3333 9.28663 9.48348 9.58266 8.33333M6.34513 0.842677L1.82359 4.35943C1.52135 4.59451 1.37022 4.71205 1.26135 4.85925C1.16491 4.98964 1.09307 5.13653 1.04935 5.29271C1 5.46902 1 5.66048 1 6.04338V10.8667C1 11.6134 1 11.9868 1.14532 12.272C1.27316 12.5229 1.47713 12.7268 1.72801 12.8547C2.01323 13 2.3866 13 3.13333 13H10.8667C11.6134 13 11.9868 13 12.272 12.8547C12.5229 12.7268 12.7268 12.5229 12.8547 12.272C13 11.9868 13 11.6134 13 10.8667V6.04338C13 5.66048 13 5.46902 12.9506 5.29271C12.9069 5.13653 12.8351 4.98964 12.7386 4.85925C12.6298 4.71205 12.4787 4.59451 12.1764 4.35943L7.65487 0.842678C7.42065 0.660509 7.30354 0.569424 7.17423 0.534412C7.06013 0.503519 6.93987 0.503519 6.82577 0.534412C6.69646 0.569424 6.57935 0.660509 6.34513 0.842677Z" stroke="#282828" stroke-linecap="round" stroke-linejoin="round"/>
</svg>
