<svg width="40" height="41" viewBox="0 0 40 41" fill="none" xmlns="http://www.w3.org/2000/svg">
<rect width="40" height="40" transform="translate(0 0.5)" fill="#B1B5C3"/>
<path fill-rule="evenodd" clip-rule="evenodd" d="M19.9932 13.6358C17.9938 11.2984 14.6597 10.6696 12.1547 12.81C9.64964 14.9504 9.29697 18.529 11.2642 21.0604C12.8998 23.1651 17.8498 27.6041 19.4721 29.0408C19.6536 29.2016 19.7444 29.2819 19.8502 29.3135C19.9426 29.3411 20.0437 29.3411 20.1361 29.3135C20.2419 29.2819 20.3327 29.2016 20.5142 29.0408C22.1365 27.6041 27.0865 23.1651 28.7221 21.0604C30.6893 18.529 30.3797 14.9279 27.8316 12.81C25.2835 10.6922 21.9925 11.2984 19.9932 13.6358Z" stroke="white" stroke-width="2" stroke-linecap="round" stroke-linejoin="round"/>
</svg>
