<svg width="40" height="41" viewBox="0 0 40 41" fill="none" xmlns="http://www.w3.org/2000/svg">
<rect width="40" height="40" transform="translate(0 0.5)" fill="#B1B5C3"/>
<path d="M10.4201 21.2132C10.2839 20.9975 10.2158 20.8897 10.1777 20.7234C10.1491 20.5985 10.1491 20.4015 10.1777 20.2766C10.2158 20.1103 10.2839 20.0025 10.4201 19.7868C11.5455 18.0048 14.8954 13.5 20.0004 13.5C25.1054 13.5 28.4553 18.0048 29.5807 19.7868C29.7169 20.0025 29.785 20.1103 29.8231 20.2766C29.8517 20.4015 29.8517 20.5985 29.8231 20.7234C29.785 20.8897 29.7169 20.9975 29.5807 21.2132C28.4553 22.9952 25.1054 27.5 20.0004 27.5C14.8954 27.5 11.5455 22.9952 10.4201 21.2132Z" stroke="white" stroke-width="2" stroke-linecap="round" stroke-linejoin="round"/>
<path d="M20.0004 23.5C21.6573 23.5 23.0004 22.1569 23.0004 20.5C23.0004 18.8431 21.6573 17.5 20.0004 17.5C18.3435 17.5 17.0004 18.8431 17.0004 20.5C17.0004 22.1569 18.3435 23.5 20.0004 23.5Z" stroke="white" stroke-width="2" stroke-linecap="round" stroke-linejoin="round"/>
</svg>
