<svg width="26" height="26" viewBox="0 0 26 26" fill="none" xmlns="http://www.w3.org/2000/svg">
<path d="M6.63314 7.83345H13.2998M6.63314 12.5001H17.2998M6.63314 20.5001V23.6141C6.63314 24.3246 6.63314 24.6798 6.77878 24.8623C6.90544 25.0209 7.0975 25.1133 7.30052 25.113C7.53397 25.1128 7.81137 24.8909 8.36615 24.447L11.5468 21.9026C12.1965 21.3828 12.5214 21.1229 12.8831 20.9381C13.2041 20.7741 13.5457 20.6542 13.8988 20.5818C14.2967 20.5001 14.7127 20.5001 15.5448 20.5001H18.8998C21.14 20.5001 22.2601 20.5001 23.1158 20.0641C23.8684 19.6807 24.4803 19.0687 24.8638 18.3161C25.2998 17.4604 25.2998 16.3403 25.2998 14.1001V6.90012C25.2998 4.65991 25.2998 3.53981 24.8638 2.68416C24.4803 1.93151 23.8684 1.31959 23.1158 0.936096C22.2601 0.500122 21.14 0.500122 18.8998 0.500122H7.69981C5.45959 0.500122 4.33949 0.500122 3.48384 0.936096C2.73119 1.31959 2.11927 1.93151 1.73578 2.68416C1.2998 3.53981 1.2998 4.65991 1.2998 6.90012V15.1668C1.2998 16.4067 1.2998 17.0267 1.4361 17.5354C1.80597 18.9158 2.88416 19.994 4.26453 20.3638C4.77319 20.5001 5.39318 20.5001 6.63314 20.5001Z" stroke="#06070A" stroke-linecap="round" stroke-linejoin="round"/>
</svg>
