<svg width="10" height="8" viewBox="0 0 10 8" fill="none" xmlns="http://www.w3.org/2000/svg">
<path d="M9.20698 0.792787C9.39445 0.980314 9.49977 1.23462 9.49977 1.49979C9.49977 1.76495 9.39445 2.01926 9.20698 2.20679L4.20698 7.20679C4.01945 7.39426 3.76514 7.49957 3.49998 7.49957C3.23482 7.49957 2.98051 7.39426 2.79298 7.20679L0.79298 5.20679C0.610822 5.01818 0.510027 4.76558 0.512306 4.50339C0.514584 4.24119 0.619753 3.99038 0.805161 3.80497C0.990569 3.61956 1.24138 3.51439 1.50358 3.51211C1.76578 3.50983 2.01838 3.61063 2.20698 3.79279L3.49998 5.08579L7.79298 0.792787C7.98051 0.605316 8.23482 0.5 8.49998 0.5C8.76514 0.5 9.01945 0.605316 9.20698 0.792787Z" fill="white"/>
</svg>
