<svg width="22" height="20" viewBox="0 0 22 20" fill="none" xmlns="http://www.w3.org/2000/svg">
<path d="M2.13589 3.66687C1.37955 2.82155 1.00138 2.39889 0.987117 2.03968C0.974726 1.72764 1.10882 1.42772 1.34963 1.22889C1.62684 1 2.19399 1 3.32828 1H18.1712C19.3055 1 19.8727 1 20.1499 1.22889C20.3907 1.42772 20.5248 1.72764 20.5124 2.03968C20.4981 2.39889 20.1199 2.82155 19.3636 3.66687L13.6574 10.0444C13.5066 10.2129 13.4312 10.2972 13.3775 10.3931C13.3298 10.4781 13.2948 10.5697 13.2736 10.6648C13.2497 10.7721 13.2497 10.8852 13.2497 11.1113V16.4584C13.2497 16.6539 13.2497 16.7517 13.2182 16.8363C13.1903 16.911 13.145 16.9779 13.086 17.0315C13.0192 17.0922 12.9284 17.1285 12.7469 17.2012L9.34686 18.5612C8.97931 18.7082 8.79554 18.7817 8.64802 18.751C8.51901 18.7242 8.4058 18.6476 8.333 18.5377C8.24975 18.4122 8.24975 18.2142 8.24975 17.8184V11.1113C8.24975 10.8852 8.24975 10.7721 8.22587 10.6648C8.20469 10.5697 8.16971 10.4781 8.12204 10.3931C8.06828 10.2972 7.9929 10.2129 7.84213 10.0444L2.13589 3.66687Z" stroke="#1F222C" stroke-linecap="round" stroke-linejoin="round"/>
</svg>
