<svg width="22" height="21" viewBox="0 0 22 21" fill="none" xmlns="http://www.w3.org/2000/svg">
<path d="M12.744 1.63346L20.272 6.52667C20.538 6.69957 20.671 6.78602 20.7674 6.90134C20.8527 7.00342 20.9167 7.12149 20.9558 7.24865C21 7.39229 21 7.55092 21 7.86818V15.1999C21 16.88 21 17.7201 20.673 18.3619C20.3854 18.9263 19.9265 19.3853 19.362 19.6729C18.7202 19.9999 17.8802 19.9999 16.2 19.9999H5.8C4.11984 19.9999 3.27976 19.9999 2.63803 19.6729C2.07354 19.3853 1.6146 18.9263 1.32698 18.3619C1 17.7201 1 16.88 1 15.1999V7.86818C1 7.55092 1 7.39229 1.04417 7.24865C1.08327 7.12149 1.14735 7.00342 1.23265 6.90134C1.32901 6.78602 1.46201 6.69957 1.72802 6.52667L9.25604 1.63346M12.744 1.63346C12.1127 1.22315 11.7971 1.01799 11.457 0.938172C11.1564 0.867614 10.8436 0.867614 10.543 0.938172C10.2029 1.01799 9.88728 1.22315 9.25604 1.63346M12.744 1.63346L18.9361 5.65837C19.624 6.10547 19.9679 6.32902 20.087 6.61252C20.1911 6.86027 20.1911 7.13949 20.087 7.38724C19.9679 7.67074 19.624 7.89429 18.9361 8.34139L12.744 12.3663C12.1127 12.7766 11.7971 12.9818 11.457 13.0616C11.1564 13.1321 10.8436 13.1321 10.543 13.0616C10.2029 12.9818 9.88728 12.7766 9.25604 12.3663L3.06386 8.34139C2.37601 7.89429 2.03209 7.67074 1.91297 7.38724C1.80888 7.13949 1.80888 6.86027 1.91297 6.61252C2.03209 6.32902 2.37601 6.10547 3.06386 5.65837L9.25604 1.63346M20.5 17.9999L13.8572 11.9999M8.14282 11.9999L1.5 17.9999" stroke="#1F222C" stroke-linecap="round" stroke-linejoin="round"/>
</svg>
