<svg width="13" height="13" viewBox="0 0 13 13" fill="none" xmlns="http://www.w3.org/2000/svg">
<path d="M5.85518 0.802048C6.00884 0.490755 6.08567 0.335109 6.18997 0.28538C6.28071 0.242113 6.38614 0.242113 6.47688 0.28538C6.58118 0.335109 6.65801 0.490755 6.81167 0.802048L8.26945 3.75536C8.31482 3.84726 8.3375 3.89321 8.37065 3.92889C8.4 3.96048 8.43519 3.98607 8.47429 4.00425C8.51845 4.02479 8.56915 4.0322 8.67056 4.04702L11.9314 4.52364C12.2748 4.57383 12.4465 4.59893 12.5259 4.6828C12.5951 4.75576 12.6276 4.85603 12.6144 4.95569C12.5993 5.07022 12.475 5.19129 12.2264 5.43342L9.86771 7.73078C9.79419 7.8024 9.75742 7.83821 9.7337 7.88081C9.7127 7.91854 9.69922 7.95998 9.69402 8.00284C9.68815 8.05125 9.69683 8.10183 9.71418 8.203L10.2707 11.4479C10.3294 11.7902 10.3588 11.9613 10.3036 12.0628C10.2556 12.1512 10.1703 12.2132 10.0715 12.2315C9.95783 12.2526 9.80416 12.1717 9.49682 12.0101L6.58167 10.4771C6.49084 10.4293 6.44542 10.4054 6.39758 10.396C6.35521 10.3877 6.31164 10.3877 6.26928 10.396C6.22143 10.4054 6.17602 10.4293 6.08519 10.4771L3.17003 12.0101C2.86269 12.1717 2.70902 12.2526 2.5954 12.2315C2.49654 12.2132 2.41123 12.1512 2.36324 12.0628C2.30808 11.9613 2.33743 11.7902 2.39613 11.4479L2.95267 8.203C2.97002 8.10183 2.9787 8.05125 2.97283 8.00284C2.96763 7.95998 2.95416 7.91854 2.93315 7.88081C2.90943 7.83821 2.87267 7.8024 2.79914 7.73078L0.440454 5.43342C0.191857 5.19129 0.0675578 5.07022 0.0524322 4.95569C0.0392721 4.85603 0.0717837 4.75576 0.140915 4.6828C0.220371 4.59893 0.392062 4.57383 0.735444 4.52364L3.99629 4.04702C4.0977 4.0322 4.1484 4.02479 4.19256 4.00425C4.23166 3.98607 4.26686 3.96048 4.29621 3.92889C4.32935 3.89321 4.35203 3.84726 4.3974 3.75536L5.85518 0.802048Z" fill="#F40D29"/>
</svg>
