<svg width="20" height="20" viewBox="0 0 20 20" fill="none" xmlns="http://www.w3.org/2000/svg">
<path d="M14 6V2.50065C14 1.66892 14 1.25305 13.8248 0.997473C13.6717 0.774181 13.4346 0.622496 13.1678 0.57708C12.8623 0.525099 12.4847 0.699372 11.7295 1.04792L2.85901 5.14199C2.18551 5.45284 1.84875 5.60827 1.60211 5.84932C1.38406 6.06242 1.21762 6.32255 1.1155 6.60983C1 6.93479 1 7.30568 1 8.04746V13M14.5 12.5H14.51M1 9.2L1 15.8C1 16.9201 1 17.4802 1.21799 17.908C1.40973 18.2843 1.71569 18.5903 2.09202 18.782C2.51984 19 3.07989 19 4.2 19H15.8C16.9201 19 17.4802 19 17.908 18.782C18.2843 18.5903 18.5903 18.2843 18.782 17.908C19 17.4802 19 16.9201 19 15.8V9.2C19 8.0799 19 7.51984 18.782 7.09202C18.5903 6.7157 18.2843 6.40973 17.908 6.21799C17.4802 6 16.9201 6 15.8 6L4.2 6C3.0799 6 2.51984 6 2.09202 6.21799C1.7157 6.40973 1.40973 6.71569 1.21799 7.09202C1 7.51984 1 8.07989 1 9.2ZM15 12.5C15 12.7761 14.7761 13 14.5 13C14.2239 13 14 12.7761 14 12.5C14 12.2239 14.2239 12 14.5 12C14.7761 12 15 12.2239 15 12.5Z" stroke="#1F222C" stroke-linecap="round" stroke-linejoin="round"/>
</svg>
