<svg width="28" height="26" viewBox="0 0 28 26" fill="none" xmlns="http://www.w3.org/2000/svg">
<path d="M19.3332 18.3333V5.26667C19.3332 3.77319 19.3332 3.02646 19.0425 2.45603C18.7869 1.95426 18.3789 1.54631 17.8771 1.29065C17.3067 1 16.56 1 15.0665 1H4.93317C3.4397 1 2.69296 1 2.12253 1.29065C1.62076 1.54631 1.21282 1.95426 0.957153 2.45603C0.666504 3.02646 0.666504 3.77319 0.666504 5.26667V14.0667C0.666504 15.5601 0.666504 16.3069 0.957153 16.8773C1.21282 17.3791 1.62076 17.787 2.12253 18.0427C2.69296 18.3333 3.4397 18.3333 4.93317 18.3333H19.3332ZM19.3332 18.3333H25.1998C25.9466 18.3333 26.3199 18.3333 26.6052 18.188C26.856 18.0602 27.06 17.8562 27.1878 17.6053C27.3332 17.3201 27.3332 16.9467 27.3332 16.2V12.5503C27.3332 12.2242 27.3332 12.0611 27.2963 11.9077C27.2637 11.7716 27.2098 11.6416 27.1367 11.5223C27.0542 11.3877 26.9389 11.2724 26.7083 11.0418L23.958 8.29151C23.7274 8.0609 23.6121 7.9456 23.4775 7.86315C23.3583 7.79004 23.2282 7.73617 23.0921 7.70351C22.9387 7.66667 22.7756 7.66667 22.4495 7.66667H19.3332M9.99984 21.6667C9.99984 23.5076 8.50745 25 6.6665 25C4.82555 25 3.33317 23.5076 3.33317 21.6667C3.33317 19.8257 4.82555 18.3333 6.6665 18.3333C8.50745 18.3333 9.99984 19.8257 9.99984 21.6667ZM24.6665 21.6667C24.6665 23.5076 23.1741 25 21.3332 25C19.4922 25 17.9998 23.5076 17.9998 21.6667C17.9998 19.8257 19.4922 18.3333 21.3332 18.3333C23.1741 18.3333 24.6665 19.8257 24.6665 21.6667Z" stroke="#0A0C13" stroke-linecap="round" stroke-linejoin="round"/>
</svg>
