<svg width="14" height="14" viewBox="0 0 14 14" fill="none" xmlns="http://www.w3.org/2000/svg">
<path fill-rule="evenodd" clip-rule="evenodd" d="M0.333496 6.99998C0.333496 3.31808 3.31826 0.333313 7.00016 0.333313C10.6821 0.333313 13.6668 3.31808 13.6668 6.99998C13.6668 10.6819 10.6821 13.6666 7.00016 13.6666C3.31826 13.6666 0.333496 10.6819 0.333496 6.99998ZM1.66683 6.99998C1.66683 9.9455 4.05464 12.3333 7.00016 12.3333C9.94568 12.3333 12.3335 9.9455 12.3335 6.99998C12.3335 4.05446 9.94568 1.66665 7.00016 1.66665C4.05464 1.66665 1.66683 4.05446 1.66683 6.99998ZM7.47156 3.86191C7.73191 4.12226 7.73191 4.54437 7.47156 4.80471C7.21121 5.06506 6.7891 5.06506 6.52876 4.80471C6.26841 4.54436 6.26841 4.12225 6.52876 3.86191C6.78911 3.60156 7.21122 3.60156 7.47156 3.86191ZM6.3335 6.33331C6.3335 5.96512 6.63197 5.66665 7.00016 5.66665C7.36835 5.66665 7.66683 5.96512 7.66683 6.33331V9.66665C7.66683 10.0348 7.36835 10.3333 7.00016 10.3333C6.63197 10.3333 6.3335 10.0348 6.3335 9.66665V6.33331Z" fill="#0A0C13"/>
</svg>
