<svg width="28" height="20" viewBox="0 0 28 20" fill="none" xmlns="http://www.w3.org/2000/svg">
<path d="M27.3332 7.33335H0.666504M12.6665 12.6667H5.99984M0.666504 4.93335L0.666504 15.0667C0.666504 16.5602 0.666504 17.3069 0.957153 17.8773C1.21282 18.3791 1.62076 18.787 2.12253 19.0427C2.69296 19.3333 3.4397 19.3333 4.93317 19.3334L23.0665 19.3334C24.56 19.3334 25.3067 19.3334 25.8771 19.0427C26.3789 18.787 26.7869 18.3791 27.0425 17.8773C27.3332 17.3069 27.3332 16.5602 27.3332 15.0667V4.93335C27.3332 3.43988 27.3332 2.69315 27.0425 2.12271C26.7869 1.62095 26.3789 1.213 25.8771 0.957338C25.3067 0.666689 24.56 0.666689 23.0665 0.666689L4.93317 0.666687C3.4397 0.666687 2.69296 0.666687 2.12253 0.957336C1.62076 1.213 1.21282 1.62095 0.957154 2.12271C0.666504 2.69314 0.666504 3.43988 0.666504 4.93335Z" stroke="#0A0C13" stroke-linecap="round" stroke-linejoin="round"/>
</svg>
