<svg width="56" height="56" viewBox="0 0 56 56" fill="none" xmlns="http://www.w3.org/2000/svg">
<rect x="0.5" y="0.5" width="55" height="55" stroke="#282828"/>
<path fill-rule="evenodd" clip-rule="evenodd" d="M27.9907 18.8478C25.3249 15.7312 20.8795 14.8929 17.5394 17.7467C14.1994 20.6005 13.7291 25.372 16.3521 28.7472C18.5329 31.5535 25.1329 37.4721 27.296 39.3878C27.538 39.6021 27.659 39.7093 27.8001 39.7514C27.9233 39.7881 28.0581 39.7881 28.1813 39.7514C28.3224 39.7093 28.4434 39.6021 28.6854 39.3878C30.8485 37.4721 37.4485 31.5535 39.6293 28.7472C42.2523 25.372 41.8395 20.5705 38.442 17.7467C35.0445 14.9229 30.6565 15.7312 27.9907 18.8478Z" stroke="#282828" stroke-linecap="round" stroke-linejoin="round"/>
</svg>
