<svg width="24" height="28" viewBox="0 0 24 28" fill="none" xmlns="http://www.w3.org/2000/svg">
<path d="M8.00016 13.3333L10.6668 16L16.6668 9.99999M22.6668 14C22.6668 20.5446 15.5282 25.3045 12.9308 26.8198C12.6356 26.992 12.488 27.0781 12.2797 27.1228C12.1181 27.1575 11.8822 27.1575 11.7206 27.1228C11.5123 27.0781 11.3647 26.992 11.0695 26.8198C8.47211 25.3045 1.3335 20.5446 1.3335 14V7.62346C1.3335 6.55744 1.3335 6.02444 1.50784 5.56626C1.66186 5.16151 1.91214 4.80036 2.23704 4.51403C2.60482 4.18991 3.10389 4.00276 4.10204 3.62845L11.2511 0.947556C11.5283 0.843608 11.6669 0.791634 11.8095 0.77103C11.9359 0.752755 12.0644 0.752755 12.1908 0.77103C12.3334 0.791634 12.472 0.843608 12.7492 0.947556L19.8983 3.62845C20.8964 4.00276 21.3955 4.18991 21.7633 4.51403C22.0882 4.80036 22.3385 5.16151 22.4925 5.56626C22.6668 6.02444 22.6668 6.55744 22.6668 7.62346V14Z" stroke="#0A0C13" stroke-linecap="round" stroke-linejoin="round"/>
</svg>
