<svg width="15" height="16" viewBox="0 0 15 16" fill="none" xmlns="http://www.w3.org/2000/svg">
<path d="M10.3335 1.33325V8.66659M13.6669 6.53325V3.46659C13.6669 2.71985 13.6669 2.34648 13.5215 2.06126C13.3937 1.81038 13.1897 1.60641 12.9389 1.47858C12.6536 1.33325 12.2803 1.33325 11.5335 1.33325H4.41221C3.43788 1.33325 2.95072 1.33325 2.55725 1.51154C2.21046 1.66868 1.91573 1.92153 1.70769 2.2404C1.47164 2.60218 1.39757 3.08368 1.24942 4.04667L0.900698 6.31333C0.705294 7.58346 0.607592 8.21852 0.796067 8.71267C0.961493 9.14638 1.27263 9.50905 1.67615 9.7385C2.13589 9.99992 2.77842 9.99992 4.06349 9.99992H4.6002C4.97357 9.99992 5.16025 9.99992 5.30286 10.0726C5.4283 10.1365 5.53029 10.2385 5.5942 10.3639C5.66686 10.5065 5.66686 10.6932 5.66686 11.0666V13.0227C5.66686 13.9306 6.40286 14.6666 7.31076 14.6666C7.52731 14.6666 7.72354 14.5391 7.81149 14.3412L10.052 9.30004C10.1539 9.07075 10.2049 8.95611 10.2854 8.87204C10.3566 8.79774 10.444 8.74092 10.5408 8.70604C10.6504 8.66659 10.7758 8.66659 11.0267 8.66659H11.5335C12.2803 8.66659 12.6536 8.66659 12.9389 8.52126C13.1897 8.39343 13.3937 8.18946 13.5215 7.93857C13.6669 7.65336 13.6669 7.27999 13.6669 6.53325Z" stroke="#F40D29" stroke-linecap="round" stroke-linejoin="round"/>
</svg>
